<?xml version="1.0" encoding="UTF-8"?>
<!DOCTYPE svg PUBLIC "-//W3C//DTD SVG 1.1//EN" "http://www.w3.org/Graphics/SVG/1.1/DTD/svg11.dtd">
<svg xmlns="http://www.w3.org/2000/svg" version="1.1" width="1588px" height="1588px" style="shape-rendering:geometricPrecision; text-rendering:geometricPrecision; image-rendering:optimizeQuality; fill-rule:evenodd; clip-rule:evenodd" xmlns:xlink="http://www.w3.org/1999/xlink">
<g><path style="opacity:1" fill="#1c3a2d" d="M 1256.5,129.5 C 1258.83,130.167 1261.17,130.833 1263.5,131.5C 1228.8,177.721 1194.47,224.221 1160.5,271C 1167.83,297.329 1180.83,320.329 1199.5,340C 1203.83,343 1208.17,346 1212.5,349C 1238.56,360.196 1264.23,372.196 1289.5,385C 1348.61,419.441 1368.11,469.608 1348,535.5C 1330.66,594.951 1297.5,643.284 1248.5,680.5C 1223.99,680.831 1199.66,680.498 1175.5,679.5C 1220.78,648.379 1257.28,609.046 1285,561.5C 1294.19,543.765 1300.69,525.099 1304.5,505.5C 1309.74,482.327 1304.4,462.16 1288.5,445C 1281.37,438.601 1273.7,432.935 1265.5,428C 1242.22,416.196 1218.56,405.196 1194.5,395C 1170.1,381.935 1150.93,363.435 1137,339.5C 1122.92,314.435 1113.09,287.768 1107.5,259.5C 1128.17,230.843 1149.17,202.509 1170.5,174.5C 1171.04,174.44 1171.38,174.107 1171.5,173.5C 1168.91,172.52 1166.25,172.187 1163.5,172.5C 1088.5,167.755 1013.5,163.255 938.5,159C 851.543,285.747 764.71,412.58 678,539.5C 677.25,540.126 676.416,540.626 675.5,541C 655.177,542.761 634.843,544.095 614.5,545C 714.167,399.333 813.833,253.667 913.5,108C 1027.8,115.017 1142.13,122.184 1256.5,129.5 Z"/></g>
<g><path style="opacity:1" fill="#1c3a2d" d="M 909.5,245.5 C 948.387,389.04 986.053,533.04 1022.5,677.5C 1005.5,677.5 988.5,677.5 971.5,677.5C 939.314,551.089 906.647,424.756 873.5,298.5C 885.757,280.978 897.757,263.311 909.5,245.5 Z"/></g>
<g><path style="opacity:1" fill="#1c3a2d" d="M 524.5,682.5 C 506.468,683.153 488.802,682.486 471.5,680.5C 487.96,644.474 504.627,608.474 521.5,572.5C 623.929,562.957 726.429,553.957 829,545.5C 830.167,545.833 831.333,546.167 832.5,546.5C 816.517,591.45 800.85,636.45 785.5,681.5C 768.167,681.5 750.833,681.5 733.5,681.5C 742.11,654.669 751.11,628.002 760.5,601.5C 691.817,606.719 623.15,612.219 554.5,618C 544.084,639.331 534.084,660.831 524.5,682.5 Z"/></g>
<g><path style="opacity:1" fill="#1c3a2d" d="M 305.5,701.5 C 660.167,701.5 1014.83,701.5 1369.5,701.5C 1369.5,781.833 1369.5,862.167 1369.5,942.5C 1267.48,942.018 1165.48,942.518 1063.5,944C 1055.68,945.157 1050.18,949.324 1047,956.5C 1045.22,963.047 1044.22,969.714 1044,976.5C 1043.5,991.83 1043.33,1007.16 1043.5,1022.5C 1003.5,1022.33 963.499,1022.5 923.5,1023C 900.492,1025.75 881.658,1035.92 867,1053.5C 860.749,1063.25 857.082,1073.92 856,1085.5C 847.282,1175.45 839.115,1265.45 831.5,1355.5C 830.383,1360.97 829.717,1366.64 829.5,1372.5C 826.445,1408.17 823.445,1443.83 820.5,1479.5C 792.259,1479.83 764.093,1479.5 736,1478.5C 729.093,1341.44 721.426,1204.44 713,1067.5C 710.284,1053.56 702.784,1043.06 690.5,1036C 674.236,1028.97 657.236,1025.8 639.5,1026.5C 639.5,1010.17 639.5,993.833 639.5,977.5C 667.365,977.239 693.699,983.406 718.5,996C 745.496,1013.8 760.329,1038.97 763,1071.5C 768.667,1173.17 774.333,1274.83 780,1376.5C 788.316,1281.46 796.982,1186.46 806,1091.5C 808.737,1039.17 834.237,1003 882.5,983C 893.97,979.216 905.637,976.216 917.5,974C 943.498,973.5 969.498,973.333 995.5,973.5C 996.622,923.211 1022.29,896.711 1072.5,894C 1155.17,893.5 1237.83,893.333 1320.5,893.5C 1320.5,845.833 1320.5,798.167 1320.5,750.5C 998.5,750.5 676.5,750.5 354.5,750.5C 354.892,772.196 354.392,793.863 353,815.5C 346.662,849.505 326.496,870.005 292.5,877C 280.58,878.906 268.58,879.906 256.5,880C 255.509,894.755 255.176,909.588 255.5,924.5C 358.881,939.179 462.214,954.179 565.5,969.5C 566.333,948.508 566.833,927.508 567,906.5C 569.103,884.425 580.603,869.925 601.5,863C 616.447,861.196 631.447,859.863 646.5,859C 668.276,855.886 681.776,843.719 687,822.5C 688.328,807.867 688.828,793.2 688.5,778.5C 704.833,778.5 721.167,778.5 737.5,778.5C 744.96,866.696 704.627,910.696 616.5,910.5C 615.501,948.663 615.168,986.996 615.5,1025.5C 614.5,1025.5 613.5,1025.5 612.5,1025.5C 477.212,1005.7 341.879,986.364 206.5,967.5C 206.333,936.498 206.5,905.498 207,874.5C 211.702,848.55 227.202,834.05 253.5,831C 268.109,832.038 282.109,829.705 295.5,824C 300.856,819.792 304.022,814.292 305,807.5C 305.5,772.168 305.667,736.835 305.5,701.5 Z"/></g>
<g><path style="opacity:1" fill="#1c3a2d" d="M 363.5,857.5 C 426.502,863.013 489.502,868.68 552.5,874.5C 547.549,890.018 543.215,905.684 539.5,921.5C 466.392,916.133 393.392,909.8 320.5,902.5C 335.22,887.782 349.553,872.782 363.5,857.5 Z"/></g>
<g><path style="opacity:1" fill="#1c3a2d" d="M 1135.5,1261.5 C 1135.47,1255.95 1134.81,1250.62 1133.5,1245.5C 1127.89,1193.15 1122.05,1140.81 1116,1088.5C 1114.9,1078.07 1113.24,1067.74 1111,1057.5C 1103.18,1037.51 1088.68,1025.85 1067.5,1022.5C 1066.85,1005.8 1067.51,989.466 1069.5,973.5C 1119.21,980.048 1149.71,1007.71 1161,1056.5C 1168.44,1115.43 1175.27,1174.43 1181.5,1233.5C 1182.25,1238.48 1182.91,1238.15 1183.5,1232.5C 1189.75,1174.81 1196.25,1117.15 1203,1059.5C 1212.37,1012.45 1239.54,980.284 1284.5,963C 1288.72,961.362 1293.05,960.195 1297.5,959.5C 1297.5,977.5 1297.5,995.5 1297.5,1013.5C 1275.09,1021.41 1260.26,1036.74 1253,1059.5C 1240.44,1159.02 1228.94,1258.68 1218.5,1358.5C 1194.5,1358.5 1170.5,1358.5 1146.5,1358.5C 1143.2,1326.13 1139.53,1293.8 1135.5,1261.5 Z"/></g>
<g><path style="opacity:1" fill="#1c3a2d" d="M 374.5,1006.5 C 391.07,1008.25 407.57,1010.25 424,1012.5C 427.041,1081.53 430.374,1150.53 434,1219.5C 440.446,1151.81 446.946,1084.14 453.5,1016.5C 469.5,1018.57 485.5,1020.57 501.5,1022.5C 490.836,1134.81 480.503,1247.14 470.5,1359.5C 443.833,1359.5 417.167,1359.5 390.5,1359.5C 385.486,1241.82 380.153,1124.15 374.5,1006.5 Z"/></g>
</svg>
